HIERARCHY
ROOT joint_Root
{
	OFFSET 0.0 0.0 0.0
	CHANNELS 6 Xposition Yposition Zposition Zrotation Xrotation Yrotation 
	JOINT Hips
	{
		OFFSET 4.5925 91.4895 -427.239
		CHANNELS 6 Xposition Yposition Zposition Zrotation Xrotation Yrotation 
		JOINT Spine
		{
			OFFSET 15.7357 0.0 0.0
			CHANNELS 6 Xposition Yposition Zposition Zrotation Xrotation Yrotation 
			JOINT Chest
			{
				OFFSET 8.98455 -0.406207 0.0
				CHANNELS 6 Xposition Yposition Zposition Zrotation Xrotation Yrotation 
				JOINT Neck
				{
					OFFSET 16.3773 0.0 0.0
					CHANNELS 6 Xposition Yposition Zposition Zrotation Xrotation Yrotation 
					JOINT Head
					{
						OFFSET 6.45672 0.0 0.0
						CHANNELS 6 Xposition Yposition Zposition Zrotation Xrotation Yrotation 
						End Site
						{
							OFFSET 0.0 0.0 0.0
						}
					}
				}
				JOINT Shoulder_L
				{
					OFFSET 12.9942 -0.242716 4.98039
					CHANNELS 6 Xposition Yposition Zposition Zrotation Xrotation Yrotation 
					JOINT UpperArm_L
					{
						OFFSET 5.34809 0.0 0.0
						CHANNELS 6 Xposition Yposition Zposition Zrotation Xrotation Yrotation 
						JOINT LowerArm_L
						{
							OFFSET 24.3286 1.87007e-05 0.0
							CHANNELS 6 Xposition Yposition Zposition Zrotation Xrotation Yrotation 
							JOINT Hand_L
							{
								OFFSET 22.2916 0.0 0.0
								CHANNELS 6 Xposition Yposition Zposition Zrotation Xrotation Yrotation 
								End Site
								{
									OFFSET 0.0 0.0 0.0
								}
							}
						}
					}
				}
				JOINT Shoulder_R
				{
					OFFSET 12.9945 -0.242716 -4.98039
					CHANNELS 6 Xposition Yposition Zposition Zrotation Xrotation Yrotation 
					JOINT UpperArm_R
					{
						OFFSET -5.34813 0.0 0.0
						CHANNELS 6 Xposition Yposition Zposition Zrotation Xrotation Yrotation 
						JOINT LowerArm_R
						{
							OFFSET -24.3289 0.000322201 0.0
							CHANNELS 6 Xposition Yposition Zposition Zrotation Xrotation Yrotation 
							JOINT Hand_R
							{
								OFFSET -22.2915 -0.000108084 0.0
								CHANNELS 6 Xposition Yposition Zposition Zrotation Xrotation Yrotation 
								End Site
								{
									OFFSET 0.0 0.0 0.0
								}
							}
						}
					}
				}
			}
		}
		JOINT UpperLeg_L
		{
			OFFSET -2.19248 -6.46944 0.0
			CHANNELS 6 Xposition Yposition Zposition Zrotation Xrotation Yrotation 
			JOINT LowerLeg_L
			{
				OFFSET 39.0811 0.0 -1.23785e-05
				CHANNELS 6 Xposition Yposition Zposition Zrotation Xrotation Yrotation 
				JOINT Foot_L
				{
					OFFSET 40.9854 0.0 -1.26872e-05
					CHANNELS 6 Xposition Yposition Zposition Zrotation Xrotation Yrotation 
					JOINT Toes_L
					{
						OFFSET 11.7543 0.0 0.0
						CHANNELS 6 Xposition Yposition Zposition Zrotation Xrotation Yrotation 
						End Site
						{
							OFFSET 0.0 0.0 0.0
						}
					}
				}
			}
		}
		JOINT UpperLeg_R
		{
			OFFSET -2.19251 6.46944 0.0
			CHANNELS 6 Xposition Yposition Zposition Zrotation Xrotation Yrotation 
			JOINT LowerLeg_R
			{
				OFFSET -39.0811 -0.00228153 -0.0401928
				CHANNELS 6 Xposition Yposition Zposition Zrotation Xrotation Yrotation 
				JOINT Foot_R
				{
					OFFSET -40.9854 0.0 0.0
					CHANNELS 6 Xposition Yposition Zposition Zrotation Xrotation Yrotation 
					JOINT Toes_R
					{
						OFFSET -11.7543 0.0 0.0
						CHANNELS 6 Xposition Yposition Zposition Zrotation Xrotation Yrotation 
						End Site
						{
							OFFSET 0.0 0.0 0.0
						}
					}
				}
			}
		}
	}
}
MOTION
Frames:	7
Frame Time:	0.0333333
0.000000 0.000000 0.000000 0.000000 0.000000 -0.000000 -10.440800 89.804500 0.048093 85.413000 -2.097170 13.812000 15.735700 0.000005 -0.000001 80.073600 82.939700 -77.816100 8.984550 -0.406207 -0.000000 6.200050 -2.458080 4.643840 16.377300 -0.000001 -0.000001 32.035000 -4.545810 3.909280 6.456720 -0.000001 -0.000000 16.076300 -4.393350 11.859400 12.994200 -0.242716 4.980390 -84.834700 -11.654300 -65.891700 5.348090 -0.000007 -0.000001 -26.301500 -37.680700 -90.586900 24.328600 0.000019 0.000005 15.783900 13.265900 -50.930100 22.291600 -0.000001 0.000005 12.822900 5.430790 -3.966170 12.994500 -0.242716 -4.980390 92.701100 -7.346330 -69.747900 -5.348130 -0.000001 -0.000004 -33.700000 -39.555900 -92.425500 -24.328900 0.000322 -0.000009 8.012330 6.681590 -50.427200 -22.291500 -0.000108 -0.000004 23.040500 5.468520 -5.315280 -2.192480 -6.469440 -0.000000 -163.063000 -9.457050 2.250700 39.081100 -0.000007 -0.000012 -0.292261 0.435923 33.840100 40.985400 -0.000006 -0.000013 -5.765550 8.547740 -70.714600 11.754300 -0.000000 0.000003 -0.000070 -0.000762 -16.607000 -2.192510 6.469440 -0.000001 -179.233000 28.111500 -172.382000 -39.081100 -0.002282 -0.040193 -0.168277 0.304025 29.439000 -40.985400 0.000008 0.000006 11.230000 15.588300 -74.445600 -11.754300 -0.000006 -0.000006 -0.000924 -0.014325 -17.155800
0.000000 0.000000 0.000000 0.000000 0.000000 -0.000000 -10.479500 89.790600 0.055079 85.396100 -2.210520 13.763400 15.735700 0.000005 -0.000001 79.941600 82.927600 -77.649200 8.984550 -0.406207 -0.000000 6.220040 -2.494320 4.715710 16.377300 -0.000001 -0.000001 31.937500 -4.586350 4.083290 6.456720 -0.000001 -0.000000 15.927300 -4.530400 11.980400 12.994200 -0.242716 4.980390 -84.944100 -11.379900 -65.849400 5.348090 -0.000007 -0.000001 -25.896600 -38.488300 -87.744200 24.328600 0.000019 0.000005 15.576100 13.698000 -49.651800 22.291600 -0.000001 0.000005 12.679300 5.427100 -3.839920 12.994500 -0.242716 -4.980390 92.643800 -7.159920 -69.671100 -5.348130 -0.000001 -0.000004 -34.048400 -40.064400 -90.941400 -24.328900 0.000322 -0.000009 7.678710 6.746150 -48.939500 -22.291500 -0.000108 -0.000004 22.958200 5.464380 -5.161720 -2.192480 -6.469440 -0.000000 -163.017000 -9.479650 2.219900 39.081100 -0.000007 -0.000012 -0.299603 0.446206 33.879800 40.985400 -0.000006 -0.000013 -5.820700 8.462230 -70.746800 11.754300 -0.000000 0.000003 -0.000070 -0.000762 -16.607000 -2.192510 6.469440 -0.000001 -179.145000 28.036800 -172.455000 -39.081100 -0.002282 -0.040193 -0.170827 0.307983 29.483500 -40.985400 0.000008 0.000006 11.272500 15.589400 -74.481500 -11.754300 -0.000006 -0.000006 -0.001092 -0.016704 -17.252400
0.000000 0.000000 0.000000 0.000000 0.000000 -0.000000 -10.523900 89.780200 0.074749 85.385200 -2.290260 13.730700 15.735700 0.000005 -0.000001 79.765600 82.894900 -77.448200 8.984550 -0.406207 -0.000000 6.278630 -2.547590 4.769990 16.377300 -0.000001 -0.000001 31.756800 -4.646140 4.130720 6.456720 -0.000001 -0.000000 15.802300 -4.591970 12.183000 12.994200 -0.242716 4.980390 -85.061100 -11.080300 -65.789300 5.348090 -0.000007 -0.000001 -25.817200 -39.252900 -84.871700 24.328600 0.000019 0.000005 15.509700 14.282000 -48.364000 22.291600 -0.000001 0.000005 12.525300 5.421640 -3.654240 12.994500 -0.242716 -4.980390 92.590200 -6.990890 -69.610600 -5.348130 -0.000001 -0.000004 -34.535800 -40.627100 -89.303900 -24.328900 0.000322 -0.000009 7.241350 6.735710 -47.294700 -22.291500 -0.000108 -0.000004 22.972200 5.460760 -5.028550 -2.192480 -6.469440 -0.000000 -162.969000 -9.499340 2.220550 39.081100 -0.000007 -0.000012 -0.299604 0.446027 33.890500 40.985400 -0.000006 -0.000013 -5.861100 8.448960 -70.770100 11.754300 -0.000000 0.000003 -0.000068 -0.000741 -16.606200 -2.192510 6.469440 -0.000001 -179.077000 27.945900 -172.496000 -39.081100 -0.002282 -0.040193 -0.175686 0.316229 29.510500 -40.985400 0.000008 0.000006 11.302200 15.587000 -74.512300 -11.754300 -0.000006 -0.000006 -0.000981 -0.015139 -17.188800
0.000000 0.000000 0.000000 0.000000 0.000000 -0.000000 -10.570300 89.775100 0.109319 85.388200 -2.262120 13.714700 15.735700 0.000005 -0.000001 79.593800 82.879100 -77.262800 8.984550 -0.406207 -0.000000 6.303720 -2.594710 4.800370 16.377300 -0.000001 -0.000001 31.644900 -4.710360 4.263080 6.456720 -0.000001 -0.000000 15.683100 -4.646040 12.300100 12.994200 -0.242716 4.980390 -85.173700 -10.806500 -65.756300 5.348090 -0.000007 -0.000001 -26.138200 -39.897600 -82.132100 24.328600 0.000019 0.000005 15.342100 14.888300 -46.878400 22.291600 -0.000001 0.000005 12.547100 5.417850 -3.526680 12.994500 -0.242716 -4.980390 92.532500 -6.785260 -69.476200 -5.348130 -0.000001 -0.000004 -35.142900 -41.170700 -87.555300 -24.328900 0.000322 -0.000009 6.808870 6.734000 -45.522600 -22.291500 -0.000108 -0.000004 23.124300 5.459370 -4.978060 -2.192480 -6.469440 -0.000000 -162.938000 -9.493840 2.225670 39.081100 -0.000007 -0.000012 -0.300641 0.447908 33.870500 40.985400 -0.000006 -0.000013 -5.884170 8.495220 -70.768600 11.754300 -0.000000 0.000003 -0.000074 -0.000798 -16.608300 -2.192510 6.469440 -0.000001 -179.018000 27.923600 -172.486000 -39.081100 -0.002282 -0.040193 -0.166524 0.300400 29.481300 -40.985400 0.000008 0.000006 11.317100 15.522600 -74.528600 -11.754300 -0.000006 -0.000006 -0.000973 -0.015021 -17.184000
0.000000 0.000000 0.000000 0.000000 0.000000 -0.000000 -10.624800 89.756600 0.148285 85.381400 -2.199290 13.690600 15.735700 0.000005 -0.000001 79.384300 82.840500 -77.045600 8.984550 -0.406207 -0.000000 6.371910 -2.658520 4.820880 16.377300 -0.000001 -0.000001 31.520300 -4.774350 4.341380 6.456720 -0.000001 -0.000000 15.551600 -4.694670 12.471500 12.994200 -0.242716 4.980390 -85.296800 -10.490000 -65.682400 5.348090 -0.000007 -0.000001 -26.924000 -40.637000 -79.691900 24.328600 0.000019 0.000005 15.279600 15.709400 -45.256000 22.291600 -0.000001 0.000005 12.396900 5.407080 -3.169340 12.994500 -0.242716 -4.980390 92.437400 -6.507320 -69.413700 -5.348130 -0.000001 -0.000004 -35.634100 -41.881300 -85.576400 -24.328900 0.000322 -0.000009 6.372370 6.697500 -43.763400 -22.291500 -0.000108 -0.000004 23.337000 5.452150 -4.716840 -2.192480 -6.469440 -0.000000 -162.891000 -9.458170 2.198040 39.081100 -0.000007 -0.000012 -0.299324 0.445408 33.902600 40.985400 -0.000006 -0.000013 -5.924840 8.533880 -70.798500 11.754300 -0.000000 0.000003 -0.000062 -0.000681 -16.603900 -2.192510 6.469440 -0.000001 -178.959000 27.917400 -172.512000 -39.081100 -0.002282 -0.040193 -0.171481 0.308673 29.520500 -40.985400 0.000008 0.000006 11.328400 15.419400 -74.578200 -11.754300 -0.000006 -0.000006 -0.000953 -0.014736 -17.172500
0.000000 0.000000 0.000000 0.000000 0.000000 -0.000000 -10.696600 89.748300 0.187325 85.367700 -2.099760 13.686500 15.735700 0.000005 -0.000001 79.370500 82.789700 -77.027200 8.984550 -0.406207 -0.000000 6.471680 -2.678400 4.833430 16.377300 -0.000001 -0.000001 31.381400 -4.863570 4.432230 6.456720 -0.000001 -0.000000 15.469000 -4.818620 12.689500 12.994200 -0.242716 4.980390 -85.404700 -10.250100 -65.692000 5.348090 -0.000007 -0.000001 -28.429800 -41.476900 -77.533100 24.328600 0.000019 0.000005 15.338200 16.656700 -43.738700 22.291600 -0.000001 0.000005 12.192100 5.396640 -2.828510 12.994500 -0.242716 -4.980390 92.347000 -6.242020 -69.345400 -5.348130 -0.000001 -0.000004 -35.985200 -42.710500 -83.151300 -24.328900 0.000322 -0.000009 5.944310 6.557470 -42.362300 -22.291500 -0.000108 -0.000004 23.224700 5.441840 -4.350220 -2.192480 -6.469440 -0.000000 -162.839000 -9.403800 2.189770 39.081100 -0.000007 -0.000012 -0.299853 0.446355 33.893000 40.985400 -0.000006 -0.000013 -5.952820 8.612880 -70.796400 11.754300 -0.000000 0.000003 -0.000069 -0.000744 -16.606300 -2.192510 6.469440 -0.000001 -178.894000 27.916000 -172.477000 -39.081100 -0.002282 -0.040193 -0.171258 0.308727 29.485000 -40.985400 0.000008 0.000006 11.332000 15.314700 -74.596700 -11.754300 -0.000006 -0.000006 -0.000991 -0.015280 -17.194600
0.000000 0.000000 0.000000 0.000000 0.000000 -0.000000 -10.763300 89.730600 0.215997 85.333600 -1.972110 13.658300 15.735700 0.000005 -0.000001 79.334200 82.726600 -76.976200 8.984550 -0.406207 -0.000000 6.595230 -2.707990 4.867590 16.377300 -0.000001 -0.000001 31.365600 -4.919600 4.492670 6.456720 -0.000001 -0.000000 15.244600 -4.928680 12.816100 12.994200 -0.242716 4.980390 -85.514800 -9.982730 -65.652900 5.348090 -0.000007 -0.000001 -30.226700 -42.499300 -75.647100 24.328600 0.000019 0.000005 14.954500 17.325300 -41.889600 22.291600 -0.000001 0.000005 12.032900 5.391760 -2.671630 12.994500 -0.242716 -4.980390 92.250500 -5.988340 -69.358800 -5.348130 -0.000001 -0.000004 -35.893800 -43.727400 -80.273200 -24.328900 0.000322 -0.000009 5.708360 6.569900 -41.148100 -22.291500 -0.000108 -0.000004 23.058200 5.426000 -3.801880 -2.192480 -6.469440 -0.000000 -162.780000 -9.301280 2.112290 39.081100 -0.000007 -0.000012 -0.302997 0.450265 33.938400 40.985400 -0.000006 -0.000013 -5.999740 8.646390 -70.813600 11.754300 -0.000000 0.000003 -0.000065 -0.000711 -16.605100 -2.192510 6.469440 -0.000001 -178.836000 28.048500 -172.478000 -39.081100 -0.002282 -0.040193 -0.173150 0.312012 29.489700 -40.985400 0.000008 0.000006 11.374900 15.283500 -74.648200 -11.754300 -0.000006 -0.000006 -0.001002 -0.015429 -17.200600
